<svg width="112" height="74" viewBox="0 0 112 74" fill="none" xmlns="http://www.w3.org/2000/svg">
<g clip-path="url(#clip0_19_2559)">
<path d="M15.209 26.7522C16.2188 28.8199 19.2084 29.4563 19.2084 29.4563C19.2084 29.4563 20.5588 26.7394 19.5472 24.6721C18.5374 22.6043 15.5496 21.9675 15.5496 21.9675C15.5496 21.9675 14.1991 24.6844 15.209 26.7522Z" fill="url(#paint0_linear_19_2559)"/>
<path d="M95.1343 38.845C93.519 39.8045 91.2015 38.9174 91.2015 38.9174C91.2015 38.9174 91.5045 36.4752 93.1208 35.5168C94.7362 34.5574 97.0527 35.4433 97.0527 35.4433C97.0527 35.4433 96.7497 37.8855 95.1343 38.845Z" fill="url(#paint1_linear_19_2559)"/>
<path d="M24.482 63.2852C25.1398 63.2852 25.6731 62.7566 25.6731 62.1046C25.6731 61.4526 25.1398 60.9241 24.482 60.9241C23.8241 60.9241 23.2908 61.4526 23.2908 62.1046C23.2908 62.7566 23.8241 63.2852 24.482 63.2852Z" fill="#E1E4E5"/>
<path d="M94.369 51.6638C95.3192 51.6638 96.0895 50.9004 96.0895 49.9586C96.0895 49.0169 95.3192 48.2534 94.369 48.2534C93.4187 48.2534 92.6484 49.0169 92.6484 49.9586C92.6484 50.9004 93.4187 51.6638 94.369 51.6638Z" fill="#E1E4E5"/>
<path d="M18.6536 54.1434C19.3768 54.1434 19.9631 53.5623 19.9631 52.8456C19.9631 52.1288 19.3768 51.5477 18.6536 51.5477C17.9304 51.5477 17.3441 52.1288 17.3441 52.8456C17.3441 53.5623 17.9304 54.1434 18.6536 54.1434Z" fill="#E1E4E5"/>
<path d="M24.1307 14.6339C24.9347 14.6339 25.5865 13.9879 25.5865 13.191C25.5865 12.3941 24.9347 11.7481 24.1307 11.7481C23.3266 11.7481 22.6748 12.3941 22.6748 13.191C22.6748 13.9879 23.3266 14.6339 24.1307 14.6339Z" fill="#E1E4E5"/>
<path d="M92.6483 22.304C92.6483 23.0196 93.2336 23.5997 93.9557 23.5997C94.6777 23.5997 95.2631 23.0196 95.2631 22.304C95.2631 21.5884 94.6777 21.0082 93.9557 21.0082C93.2336 21.0082 92.6483 21.5884 92.6483 22.304Z" fill="#E1E4E5"/>
<path d="M63.2686 10.1543C63.9126 10.1543 64.4347 9.63684 64.4347 8.99853C64.4347 8.36022 63.9126 7.84277 63.2686 7.84277C62.6245 7.84277 62.1024 8.36022 62.1024 8.99853C62.1024 9.63684 62.6245 10.1543 63.2686 10.1543Z" fill="#E1E4E5"/>
<path d="M19.4927 40.5427C20.2316 40.5427 20.8306 40.0678 20.8306 39.4819C20.8306 38.8961 20.2316 38.4211 19.4927 38.4211C18.7538 38.4211 18.1548 38.8961 18.1548 39.4819C18.1548 40.0678 18.7538 40.5427 19.4927 40.5427Z" fill="#E1E4E5"/>
<path d="M90.5053 9.83618H90.4863C90.3734 11.421 89.1842 11.4453 89.1842 11.4453C89.1842 11.4453 90.4956 11.4707 90.4956 13.3018C90.4956 11.4707 91.8069 11.4453 91.8069 11.4453C91.8069 11.4453 90.6182 11.4209 90.5053 9.83618ZM88.2403 59.1827H88.222C88.1138 60.7627 86.972 60.787 86.972 60.787C86.972 60.787 88.231 60.8123 88.231 62.6381C88.231 60.8123 89.49 60.787 89.49 60.787C89.49 60.787 88.3487 60.7627 88.2403 59.1827Z" fill="#E1E4E5"/>
<path fill-rule="evenodd" clip-rule="evenodd" d="M56.3066 62.6653C55.2236 62.6653 54.3446 63.5364 54.3525 64.6098C54.3525 65.6831 55.2314 66.5542 56.3145 66.5542C57.3975 66.5542 58.2766 65.6831 58.2766 64.6098C58.2766 63.5364 57.3975 62.6653 56.3066 62.6653Z" fill="#2F0468"/>
<path d="M56.3066 62.6653C55.2236 62.6653 54.3446 63.5364 54.3525 64.6098C54.3525 65.6831 55.2314 66.5542 56.3145 66.5542C57.3975 66.5542 58.2766 65.6831 58.2766 64.6098C58.2766 63.5364 57.3975 62.6653 56.3066 62.6653Z" stroke="#2F0468" stroke-width="31" stroke-linecap="round" stroke-linejoin="round"/>
<path d="M72.4558 64.266C72.5021 64.311 72.539 64.3646 72.5644 64.4238C72.5897 64.483 72.6029 64.5466 72.6032 64.6109C72.6036 64.6752 72.591 64.7389 72.5664 64.7984C72.5417 64.8578 72.5054 64.9119 72.4595 64.9573C72.4136 65.0028 72.3591 65.0388 72.2991 65.0632C72.2391 65.0876 72.1748 65.1 72.11 65.0997C72.0451 65.0993 71.9809 65.0862 71.9212 65.0611C71.8615 65.036 71.8074 64.9995 71.762 64.9535C71.6717 64.862 71.6214 64.7388 71.6221 64.6108C71.6228 64.4828 71.6745 64.3602 71.7658 64.2697C71.8572 64.1792 71.9809 64.128 72.11 64.1273C72.2392 64.1266 72.3635 64.1765 72.4558 64.266Z" fill="#323232"/>
<path d="M72.4558 64.266C72.5021 64.311 72.539 64.3646 72.5644 64.4238C72.5897 64.483 72.6029 64.5466 72.6032 64.6109C72.6036 64.6752 72.591 64.7389 72.5664 64.7984C72.5417 64.8578 72.5054 64.9119 72.4595 64.9573C72.4136 65.0028 72.3591 65.0388 72.2991 65.0632C72.2391 65.0876 72.1748 65.1 72.11 65.0997C72.0451 65.0993 71.9809 65.0862 71.9212 65.0611C71.8615 65.036 71.8074 64.9995 71.762 64.9535C71.6717 64.862 71.6214 64.7388 71.6221 64.6108C71.6228 64.4828 71.6745 64.3602 71.7658 64.2697C71.8572 64.1792 71.9809 64.128 72.11 64.1273C72.2392 64.1266 72.3635 64.1765 72.4558 64.266Z" stroke="#2F0468" stroke-width="31" stroke-linecap="round" stroke-linejoin="round"/>
<path d="M41.0633 64.2661C41.1105 64.3109 41.1482 64.3645 41.1741 64.4239C41.2001 64.4833 41.2139 64.5473 41.2146 64.612C41.2153 64.6768 41.2029 64.741 41.1783 64.8009C41.1536 64.8609 41.1171 64.9153 41.0709 64.9611C41.0247 65.0069 40.9697 65.043 40.9093 65.0675C40.8488 65.0919 40.784 65.1041 40.7186 65.1034C40.6533 65.1027 40.5888 65.0891 40.5289 65.0633C40.469 65.0376 40.4148 65.0002 40.3696 64.9534C40.281 64.8616 40.2321 64.739 40.2335 64.6119C40.2349 64.4848 40.2865 64.3633 40.3772 64.2735C40.4679 64.1836 40.5905 64.1325 40.7187 64.1311C40.847 64.1298 40.9707 64.1782 41.0633 64.2661Z" fill="#323232"/>
<path d="M41.0633 64.2661C41.1105 64.3109 41.1482 64.3645 41.1741 64.4239C41.2001 64.4833 41.2139 64.5473 41.2146 64.612C41.2153 64.6768 41.2029 64.741 41.1783 64.8009C41.1536 64.8609 41.1171 64.9153 41.0709 64.9611C41.0247 65.0069 40.9697 65.043 40.9093 65.0675C40.8488 65.0919 40.784 65.1041 40.7186 65.1034C40.6533 65.1027 40.5888 65.0891 40.5289 65.0633C40.469 65.0376 40.4148 65.0002 40.3696 64.9534C40.281 64.8616 40.2321 64.739 40.2335 64.6119C40.2349 64.4848 40.2865 64.3633 40.3772 64.2735C40.4679 64.1836 40.5905 64.1325 40.7187 64.1311C40.847 64.1298 40.9707 64.1782 41.0633 64.2661Z" stroke="#2F0468" stroke-width="31" stroke-linecap="round" stroke-linejoin="round"/>
<path fill-rule="evenodd" clip-rule="evenodd" d="M79.9064 57.951H32.9526C29.0501 57.951 25.8872 54.3269 25.8872 49.8551V15.496C25.8872 11.0242 29.0501 7.40002 32.9526 7.40002H79.9099C83.8091 7.40002 86.972 11.0242 86.972 15.496V49.8589C86.972 54.3269 83.8091 57.951 79.9064 57.951Z" fill="#2F0468"/>
<path d="M56.4356 53.28C67.6728 53.28 76.7822 44.2794 76.7822 33.1767C76.7822 22.074 67.6728 13.0734 56.4356 13.0734C45.1984 13.0734 36.0889 22.074 36.0889 33.1767C36.0889 44.2794 45.1984 53.28 56.4356 53.28Z" fill="white"/>
<path d="M48.0122 29.0081L43.7919 33.1907L48.0122 37.3733M64.8934 29.0081L69.1137 33.1907L64.8934 37.3733M58.5629 28.3178L54.3426 38.0634" stroke="#2F0468" stroke-width="24" stroke-miterlimit="10" stroke-linecap="round" stroke-linejoin="round"/>
</g>
<defs>
<linearGradient id="paint0_linear_19_2559" x1="19.5419" y1="34.1112" x2="14.3957" y2="13.078" gradientUnits="userSpaceOnUse">
<stop stop-color="white"/>
<stop offset="1" stop-color="#EEEEEE"/>
</linearGradient>
<linearGradient id="paint1_linear_19_2559" x1="88.8833" y1="41.9336" x2="101.773" y2="29.8495" gradientUnits="userSpaceOnUse">
<stop stop-color="white"/>
<stop offset="1" stop-color="#EEEEEE"/>
</linearGradient>
<clipPath id="clip0_19_2559">
<rect width="112" height="74" fill="white"/>
</clipPath>
</defs>
</svg>
