<svg width="454" height="305" viewBox="0 0 454 305" fill="none" xmlns="http://www.w3.org/2000/svg">
<g clip-path="url(#clip0_17_2409)">
<path d="M93.6546 296.361C101.967 299.41 110.548 301.667 119.282 303.103C143.313 307.054 167.951 304.811 190.878 296.586L184.294 270.107L183.896 268.518L170.46 268.57L102.96 268.812L102.096 271.372L93.6546 296.361Z" fill="#2F2E41"/>
<path d="M330.159 0H454V140.453H330.159V0Z" fill="#E6E6E6"/>
<path d="M332.584 2.9714H451.792V137.482H332.584V2.9714Z" fill="#200E32"/>
<path d="M392.079 132.699C388.389 132.699 385.397 129.7 385.397 126.002C385.397 122.303 388.389 119.304 392.079 119.304C395.77 119.304 398.762 122.303 398.762 126.002C398.762 129.7 395.77 132.699 392.079 132.699Z" fill="#E6E6E6"/>
<path d="M393.208 50.5852H431.588V54.5205H393.208V50.5852Z" fill="#E6E6E6"/>
<path d="M373.663 62.3776H431.588V66.3129H373.663V62.3776Z" fill="#2F0468"/>
<path d="M379.348 74.2442H431.588V78.1795H379.348V74.2442Z" fill="#E6E6E6"/>
<path d="M350.919 85.7972H431.588V89.7325H350.919V85.7972Z" fill="#2F0468"/>
<path d="M365.006 96.7998H430.75V100.735H365.006V96.7998Z" fill="#E6E6E6"/>
<path d="M277.902 228.545C277.431 229.03 276.999 229.551 276.61 230.104L216.079 228.619L209.018 215.686L188.151 223.816L198.433 247.93C199.264 249.878 200.702 251.503 202.533 252.562C204.364 253.621 206.487 254.056 208.586 253.802L276.975 245.521C278.589 247.568 280.785 249.075 283.274 249.84C285.762 250.605 288.423 250.592 290.904 249.804C293.385 249.016 295.568 247.49 297.162 245.428C298.757 243.366 299.687 240.867 299.829 238.262C299.972 235.658 299.32 233.071 297.96 230.847C296.6 228.623 294.597 226.866 292.217 225.811C289.837 224.756 287.192 224.452 284.636 224.94C282.079 225.428 279.731 226.684 277.904 228.542L277.902 228.545Z" fill="#9F616A"/>
<path d="M196.431 154.693L168.103 145.388L159.783 133.951L119.295 136.353L113.351 149.699L91.7619 159.924L95.0799 221.683L100.756 279.481C129.943 264.333 184.413 275.882 184.89 276.07L196.431 154.693Z" fill="white"/>
<path d="M189.407 236.351L218.22 224.796L218.097 224.282C217.974 223.763 205.71 172.399 204.082 164.145C202.386 155.545 196.188 153.168 195.925 153.071L195.733 153L184.33 156.479L179.322 195.919L189.407 236.351Z" fill="white"/>
<path d="M128.161 276.941C127.486 276.924 126.81 276.962 126.14 277.052L86.0712 231.554L90.732 217.573L70.5961 207.764L59.9445 231.716C59.0839 233.651 58.8728 235.814 59.3429 237.879C59.8129 239.944 60.9388 241.801 62.5513 243.171L115.107 287.804C114.707 290.381 115.099 293.02 116.231 295.368C117.363 297.717 119.182 299.665 121.445 300.952C123.709 302.24 126.31 302.806 128.902 302.576C131.494 302.345 133.955 301.329 135.958 299.663C137.96 297.997 139.409 295.759 140.111 293.247C140.813 290.736 140.736 288.069 139.89 285.603C139.044 283.136 137.468 280.986 135.373 279.439C133.278 277.891 130.762 277.02 128.161 276.941Z" fill="#9F616A"/>
<path d="M88.3012 234.046L105.016 194.639L98.4966 167.189L91.4723 158.294C90.9578 158.074 90.4033 157.963 89.8438 157.968C89.2843 157.973 88.732 158.094 88.2217 158.324C85.6296 159.369 83.4262 162.572 81.6649 167.844L66 212.566L88.3012 234.046Z" fill="white"/>
<path d="M175.99 119.349V89.6392C176.007 84.4112 174.997 79.2309 173.017 74.3942C171.037 69.5575 168.125 65.159 164.449 61.45C160.773 57.741 156.404 54.794 151.592 52.7773C146.78 50.7606 141.618 49.7137 136.402 49.6964C131.186 49.6791 126.018 50.6917 121.192 52.6763C116.366 54.661 111.978 57.5789 108.278 61.2635C104.577 64.948 101.637 69.327 99.6248 74.1505C97.6127 78.9739 96.5682 84.1474 96.5509 89.3754C96.5507 89.4633 96.5507 89.5513 96.5509 89.6392V119.349C96.5525 120.767 97.1152 122.126 98.1154 123.129C99.1157 124.131 100.472 124.695 101.886 124.697H170.654C172.069 124.695 173.425 124.131 174.425 123.129C175.426 122.126 175.988 120.767 175.99 119.349Z" fill="#2F2E41"/>
<path d="M144.432 124.004C128.35 124.004 115.312 110.937 115.312 94.8166C115.312 78.6966 128.35 65.6288 144.432 65.6288C160.515 65.6288 173.553 78.6966 173.553 94.8166C173.553 110.937 160.515 124.004 144.432 124.004Z" fill="#9F616A"/>
<path d="M185.386 92.016C185.377 83.6666 182.064 75.6619 176.173 69.758C170.283 63.854 162.297 60.5331 153.966 60.5237H148.038C139.708 60.5331 131.721 63.854 125.831 69.758C119.941 75.6619 116.627 83.6667 116.618 92.016V92.6101H129.147L133.42 80.6155L134.275 92.6101H140.749L142.905 86.5591L143.337 92.6101H185.386V92.016Z" fill="#2F2E41"/>
<path d="M147.298 128.038C147.886 127.239 148.237 126.291 148.311 125.301C148.385 124.312 148.179 123.321 147.716 122.444C141.434 110.467 132.638 88.337 144.313 74.689L145.15 73.7095H111.255V124.715L142.046 130.16C142.358 130.216 142.673 130.244 142.99 130.244C143.83 130.244 144.659 130.044 145.408 129.661C146.156 129.278 146.803 128.722 147.296 128.039L147.298 128.038Z" fill="#2F2E41"/>
<path d="M392.187 10.939C394.998 10.9389 397.745 11.7741 400.082 13.3389C402.419 14.9038 404.24 17.1281 405.316 19.7305C406.391 22.3329 406.673 25.1966 406.125 27.9594C405.577 30.7222 404.223 33.26 402.236 35.2519C400.249 37.2439 397.717 38.6005 394.961 39.1502C392.204 39.6999 389.347 39.418 386.751 38.3401C384.154 37.2623 381.935 35.4369 380.373 33.0948C378.812 30.7527 377.978 27.9992 377.978 25.1823C377.978 23.3119 378.346 21.4591 379.06 19.7311C379.774 18.0032 380.821 16.4331 382.14 15.1106C383.46 13.788 385.026 12.7389 386.75 12.0232C388.474 11.3074 390.321 10.939 392.187 10.939ZM392.187 15.2114C391.344 15.2114 390.52 15.462 389.819 15.9314C389.118 16.4009 388.572 17.0681 388.249 17.8488C387.926 18.6294 387.842 19.4885 388.006 20.3172C388.171 21.146 388.577 21.9073 389.173 22.5048C389.769 23.1023 390.529 23.5092 391.355 23.674C392.182 23.8389 393.039 23.7543 393.818 23.4309C394.597 23.1076 395.263 22.56 395.731 21.8574C396.2 21.1548 396.45 20.3288 396.45 19.4838C396.45 18.3507 396.001 17.264 395.201 16.4628C394.402 15.6615 393.318 15.2114 392.187 15.2114ZM392.187 35.7805C393.871 35.7727 395.528 35.3533 397.014 34.5586C398.499 33.7639 399.769 32.6179 400.713 31.22C400.644 28.3715 395.029 26.8035 392.187 26.8035C389.345 26.8035 383.73 28.3715 383.661 31.22C384.606 32.6169 385.876 33.7621 387.362 34.5567C388.847 35.3513 390.503 35.7713 392.187 35.7805Z" fill="white"/>
<path d="M392.022 128.569C386.168 117.817 372.144 111.007 360.673 117.145C355.509 119.907 351.405 124.793 350.102 130.569C348.589 137.277 351.776 143.674 355.065 149.311C356.85 152.37 358.806 155.367 360.284 158.594C361.813 161.935 362.907 165.797 361.755 169.433C360.718 172.708 358.118 175.09 355.271 176.84C352.129 178.699 348.787 180.196 345.308 181.301C338.148 183.687 330.596 184.667 323.065 184.185C319.323 183.93 315.612 183.329 311.98 182.389C308.116 181.401 304.324 180.15 300.454 179.184C293.993 177.576 286.626 176.776 280.499 180.007C274.546 183.147 271.882 189.715 271.058 196.104C269.537 207.902 274.204 220.146 282.631 228.408C286.674 232.372 291.761 235.646 297.302 236.986C302.137 238.155 308.345 238.08 312.193 234.458C316.486 230.415 315.476 223.932 312.066 219.666C307.714 214.223 300.34 212.916 293.76 212.783C286.274 212.633 278.796 213.75 271.315 213.055C267.664 212.77 264.081 211.904 260.701 210.489C257.73 209.179 255.02 207.341 252.702 205.064C248.084 200.567 244.969 194.575 243.42 188.346C241.555 180.855 241.961 172.981 243.409 165.457C244.181 161.577 245.174 157.744 246.385 153.979C246.885 152.389 249.388 153.069 248.885 154.669C244.426 168.839 241.94 185.225 250.554 198.381C254.119 203.96 259.673 207.967 266.083 209.585C273.538 211.442 281.361 210.524 288.941 210.248C296.148 209.985 304.062 210.268 310.24 214.476C315.308 217.926 318.853 224.49 317.321 230.687C315.844 236.662 310.114 239.694 304.384 240.16C298.371 240.651 292.455 238.629 287.405 235.466C276.901 228.887 269.917 217.317 268.455 205.05C267.694 198.658 268.469 191.773 271.361 185.971C272.885 182.831 275.257 180.181 278.207 178.324C281.149 176.516 284.548 175.626 287.961 175.311C295.715 174.595 303.164 177.263 310.52 179.305C314.278 180.397 318.129 181.134 322.024 181.506C325.804 181.82 329.606 181.758 333.374 181.32C337.113 180.878 340.798 180.059 344.372 178.874C347.875 177.789 351.229 176.269 354.356 174.35C357.114 172.582 359.5 170.05 359.636 166.599C359.783 162.857 357.9 159.357 356.11 156.203C352.573 149.971 348.204 143.876 347.282 136.581C346.474 130.199 349.036 123.91 353.46 119.358C355.677 117.048 358.346 115.221 361.3 113.993C364.254 112.765 367.429 112.161 370.627 112.22C377.191 112.408 383.476 115.269 388.303 119.663C390.698 121.843 392.713 124.409 394.265 127.254C395.065 128.722 392.828 130.035 392.027 128.565L392.022 128.569Z" fill="#3F3D56"/>
</g>
<defs>
<clipPath id="clip0_17_2409">
<rect width="454" height="305" fill="white" transform="matrix(-1 0 0 1 454 0)"/>
</clipPath>
</defs>
</svg>
