<svg width="241" height="254" viewBox="0 0 241 254" fill="none" xmlns="http://www.w3.org/2000/svg">
<path d="M218.902 179.545C218.431 180.03 217.999 180.551 217.61 181.104L157.079 179.619L150.018 166.686L129.151 174.816L139.433 198.93C140.264 200.878 141.702 202.503 143.533 203.562C145.364 204.621 147.487 205.056 149.586 204.802L217.975 196.521C219.589 198.568 221.785 200.075 224.274 200.84C226.762 201.605 229.423 201.592 231.904 200.804C234.385 200.016 236.568 198.49 238.162 196.428C239.757 194.366 240.687 191.867 240.829 189.262C240.972 186.658 240.32 184.071 238.96 181.847C237.6 179.623 235.597 177.866 233.217 176.811C230.837 175.756 228.192 175.452 225.636 175.94C223.079 176.428 220.731 177.684 218.904 179.542L218.902 179.545Z" fill="#9F616A"/>
<path d="M137.431 105.693L109.103 96.3879L100.783 84.9513L60.2954 87.3529L54.3511 100.699L32.7619 110.924L36.0799 172.683L41.7559 230.481C70.9427 215.333 125.413 226.882 125.89 227.07L137.431 105.693Z" fill="white"/>
<path d="M130.407 187.351L159.22 175.796L159.097 175.282C158.974 174.763 146.71 123.399 145.082 115.145C143.386 106.545 137.188 104.168 136.925 104.071L136.733 104L125.33 107.479L120.322 146.919L130.407 187.351Z" fill="white"/>
<path d="M69.161 227.941C68.4856 227.924 67.8099 227.962 67.1404 228.052L27.0712 182.554L31.732 168.573L11.5961 158.764L0.944466 182.716C0.0839386 184.651 -0.127159 186.814 0.342888 188.879C0.812935 190.944 1.93876 192.801 3.55131 194.171L56.1073 238.804C55.7069 241.381 56.0988 244.02 57.231 246.368C58.3632 248.717 60.1819 250.665 62.4454 251.952C64.7088 253.24 67.3097 253.806 69.902 253.576C72.4943 253.345 74.9553 252.329 76.9576 250.663C78.9599 248.997 80.4086 246.759 81.111 244.247C81.8135 241.736 81.7364 239.069 80.8901 236.603C80.0437 234.136 78.4681 231.986 76.373 230.439C74.2778 228.891 71.7623 228.02 69.161 227.941Z" fill="#9F616A"/>
<path d="M29.3012 185.046L46.0159 145.639L39.4966 118.189L32.4723 109.294C31.9578 109.074 31.4033 108.963 30.8438 108.968C30.2843 108.973 29.732 109.094 29.2217 109.324C26.6296 110.369 24.4262 113.572 22.6649 118.844L7 163.566L29.3012 185.046Z" fill="white"/>
<path d="M116.99 70.3488V40.6392C117.007 35.4112 115.997 30.2309 114.017 25.3942C112.037 20.5575 109.125 16.159 105.449 12.45C101.773 8.74096 97.4043 5.79397 92.5919 3.77728C87.7795 1.7606 82.618 0.713705 77.402 0.696385C72.1859 0.679065 67.0176 1.69166 62.192 3.67634C57.3664 5.66103 52.978 8.57893 49.2775 12.2635C45.577 15.948 42.6368 20.327 40.6248 25.1505C38.6127 29.9739 37.5682 35.1474 37.5509 40.3754C37.5507 40.4633 37.5507 40.5513 37.5509 40.6392V70.3488C37.5525 71.7666 38.1152 73.126 39.1154 74.1285C40.1157 75.1311 41.4719 75.695 42.8865 75.6966H111.654C113.069 75.695 114.425 75.1311 115.425 74.1285C116.426 73.126 116.988 71.7666 116.99 70.3488Z" fill="#2F2E41"/>
<path d="M85.4324 75.0044C69.3495 75.0044 56.3117 61.9366 56.3117 45.8166C56.3117 29.6966 69.3495 16.6288 85.4324 16.6288C101.515 16.6288 114.553 29.6966 114.553 45.8166C114.553 61.9366 101.515 75.0044 85.4324 75.0044Z" fill="#9F616A"/>
<path d="M126.386 43.016C126.377 34.6666 123.064 26.6619 117.173 20.758C111.283 14.854 103.297 11.5331 94.9664 11.5237H89.0377C80.7075 11.5331 72.7212 14.854 66.8309 20.758C60.9406 26.6619 57.6274 34.6667 57.6181 43.016V43.6101H70.1469L74.4201 31.6155L75.2746 43.6101H81.749L83.9048 37.5591L84.3368 43.6101H126.386V43.016Z" fill="#2F2E41"/>
<path d="M88.298 79.0377C88.8862 78.2394 89.2375 77.2908 89.3114 76.3012C89.3853 75.3116 89.1788 74.3211 88.7158 73.444C82.4337 61.4674 73.6381 39.337 85.3127 25.689L86.15 24.7095H52.2549V75.7152L83.0459 81.1604C83.3575 81.2157 83.6734 81.2437 83.9899 81.244C84.8304 81.244 85.659 81.0442 86.4076 80.6608C87.1561 80.2775 87.8033 79.7217 88.2959 79.039L88.298 79.0377Z" fill="#2F2E41"/>
</svg>
