<svg width="22" height="22" viewBox="0 0 22 22" fill="none" xmlns="http://www.w3.org/2000/svg">
<g clip-path="url(#clip0_208_442)">
<path d="M11.5397 5.9483L15.3286 12.6133C16.0567 13.8941 15.609 15.5213 14.3282 16.2494C13.0473 16.9776 11.4202 16.5299 10.692 15.249L6.57369 8.00448C6.35524 7.6202 6.29839 7.16489 6.41565 6.7387C6.5329 6.3125 6.81466 5.95035 7.19894 5.7319C7.58321 5.51345 8.03853 5.4566 8.46472 5.57385C8.89091 5.69111 9.25307 5.97286 9.47152 6.35714L12.9309 12.4426C13.1121 12.7613 12.9996 13.1704 12.6808 13.3516C12.3621 13.5328 11.953 13.4203 11.7718 13.1015L8.64186 7.59564L7.77251 8.08984L10.9025 13.5957C11.1209 13.98 11.4831 14.2617 11.9092 14.379C12.3354 14.4963 12.7908 14.4394 13.175 14.221C13.5593 14.0025 13.8411 13.6403 13.9583 13.2142C14.0756 12.788 14.0187 12.3326 13.8003 11.9484L10.3409 5.86294C9.61274 4.5821 7.98557 4.13443 6.70473 4.86255C5.4239 5.59067 4.97622 7.21784 5.70435 8.49868L9.82269 15.7432C10.8243 17.5051 13.0605 18.1204 14.8224 17.1188C16.5842 16.1172 17.1995 13.881 16.1979 12.1191L12.409 5.4541L11.5397 5.9483Z" fill="#2F0468"/>
</g>
<defs>
<clipPath id="clip0_208_442">
<rect width="16" height="16" fill="white" transform="translate(0 7.90723) rotate(-29.6171)"/>
</clipPath>
</defs>
</svg>
