<svg width="33" height="33" viewBox="0 0 33 33" fill="none" xmlns="http://www.w3.org/2000/svg">
<g clip-path="url(#clip0_163_104)">
<path d="M17.3094 8.92282L22.9927 18.9203C24.0849 20.8416 23.4134 23.2823 21.4921 24.3745C19.5709 25.4667 17.1301 24.7952 16.0379 22.8739L9.86042 12.0071C9.53274 11.4307 9.44747 10.7477 9.62335 10.1084C9.79923 9.46912 10.2219 8.92589 10.7983 8.59821C11.3747 8.27054 12.0577 8.18526 12.697 8.36114C13.3362 8.53703 13.8795 8.95966 14.2072 9.53608L19.3963 18.6642C19.6681 19.1424 19.4993 19.756 19.0211 20.0278C18.543 20.2996 17.9294 20.1308 17.6576 19.6526L12.9627 11.3938L11.6586 12.1351L16.3536 20.3939C16.6812 20.9703 17.2245 21.393 17.8638 21.5689C18.503 21.7447 19.186 21.6595 19.7624 21.3318C20.3388 21.0041 20.7615 20.4609 20.9374 19.8216C21.1132 19.1823 21.028 18.4993 20.7003 17.9229L15.5112 8.79477C14.419 6.87352 11.9782 6.202 10.057 7.29419C8.13572 8.38638 7.46421 10.8271 8.5564 12.7484L14.7339 23.6152C16.2363 26.258 19.5906 27.1809 22.2334 25.6785C24.8762 24.1762 25.7991 20.8218 24.2967 18.179L18.6134 8.18152L17.3094 8.92282Z" fill="#2F0468"/>
</g>
<defs>
<clipPath id="clip0_163_104">
<rect width="24" height="24" fill="white" transform="translate(0 11.8608) rotate(-29.6171)"/>
</clipPath>
</defs>
</svg>
