<svg width="24" height="24" viewBox="0 0 24 24" fill="none" xmlns="http://www.w3.org/2000/svg">
<path d="M3.83289 4H8.32289L9.76989 7.618L7.44489 9.168C7.30797 9.25935 7.19572 9.38308 7.11809 9.52822C7.04047 9.67335 6.99987 9.83541 6.99989 10C7.00289 10.094 6.99989 10.001 6.99989 10.001V10.022C7.00048 10.0667 7.00248 10.1114 7.00589 10.156C7.01189 10.238 7.02189 10.349 7.04089 10.486C7.07989 10.756 7.15489 11.128 7.30089 11.566C7.59489 12.446 8.17089 13.585 9.29289 14.707C10.4149 15.829 11.5539 16.405 12.4329 16.699C12.8719 16.845 13.2429 16.919 13.5149 16.959C13.6684 16.9804 13.823 16.9938 13.9779 16.999L13.9909 17H13.9989C13.9989 17 14.1109 16.994 13.9999 17C14.1856 16.9999 14.3675 16.9481 14.5254 16.8504C14.6833 16.7528 14.8109 16.6131 14.8939 16.447L15.5639 15.107L19.9999 15.847V20.167C17.8889 20.472 12.1869 20.773 7.70689 16.293C3.22689 11.813 3.52689 6.11 3.83289 4ZM9.07289 10.486L10.8799 9.282C11.2616 9.02737 11.5442 8.64922 11.6802 8.21096C11.8162 7.77271 11.7974 7.30102 11.6269 6.875L10.1799 3.257C10.0314 2.88591 9.77513 2.56781 9.44413 2.34376C9.11313 2.11971 8.72259 1.99997 8.32289 2H3.78089C2.87189 2 2.01689 2.631 1.86789 3.617C1.52789 5.859 1.06689 12.481 6.29289 17.707C11.5189 22.933 18.1409 22.471 20.3829 22.132C21.3689 21.982 21.9999 21.128 21.9999 20.219V15.847C21.9999 15.3736 21.8321 14.9155 21.5261 14.5542C21.2201 14.1929 20.7959 13.9519 20.3289 13.874L15.8929 13.135C15.471 13.0646 15.0376 13.1313 14.6564 13.3253C14.2752 13.5193 13.9662 13.8304 13.7749 14.213L13.4289 14.906C13.3065 14.8759 13.1854 14.8408 13.0659 14.801C12.4459 14.595 11.5849 14.171 10.7069 13.293C9.82889 12.415 9.40489 11.554 9.19889 10.933C9.1497 10.7862 9.10798 10.637 9.07389 10.486H9.07289Z" fill="#2F0468"/>
</svg>
