<svg width="64" height="64" viewBox="0 0 64 64" fill="none" xmlns="http://www.w3.org/2000/svg">
<path d="M47.3191 44.4559L5.63963 62.5916C2.92275 63.6728 0.222751 60.9961 1.28038 58.2701L19.494 15.9346" fill="#FFB636"/>
<path d="M1.28039 58.2701L2.72789 54.9056C2.85201 54.7163 2.97576 54.5268 3.10001 54.3377C10.2996 43.3697 17.6048 32.4687 25.1594 21.7417L33.63 30.4242C27.2388 34.8119 6.48626 56.2578 2.13939 61.9463C1.19314 61.076 0.733262 59.6803 1.28039 58.2701Z" fill="#FFD469"/>
<path d="M38.0477 25.5542C45.7795 33.2859 50.0084 41.5927 47.4932 44.1079C44.9781 46.6231 36.6714 42.3942 28.9395 34.6624C21.2076 26.9307 16.9789 18.6239 19.494 16.1087C22.0091 13.5934 30.3159 17.8223 38.0477 25.5542Z" fill="#A06C33"/>
<path d="M19.4501 40.9466C19.4501 41.6981 18.8409 42.3072 18.0895 42.3072C17.3381 42.3072 16.7289 41.6981 16.7289 40.9466C16.7289 40.1951 17.338 39.5859 18.0895 39.5859C18.841 39.5859 19.4501 40.1951 19.4501 40.9466Z" fill="#F7F9AA"/>
<path d="M62.7483 26.645C62.7483 27.7235 61.874 28.5978 60.7955 28.5978C59.717 28.5978 58.8428 27.7235 58.8428 26.645C58.8428 25.5665 59.717 24.6923 60.7955 24.6923C61.874 24.6923 62.7483 25.5665 62.7483 26.645ZM49.7079 52.6478C48.6294 52.6478 47.7551 53.522 47.7551 54.6005C47.7551 55.679 48.6294 56.5533 49.7079 56.5533C50.7864 56.5533 51.6606 55.679 51.6606 54.6005C51.6606 53.522 50.7863 52.6478 49.7079 52.6478Z" fill="#FFB636"/>
<path d="M44.4936 9.94039C44.3261 11.0735 43.594 12.0744 42.4849 12.6864C41.7191 13.1089 40.8186 13.3285 39.884 13.3285C39.5863 13.3284 39.2889 13.3064 38.9944 13.2628C38.3334 13.165 37.6718 13.2648 37.1794 13.5364C36.9586 13.6581 36.5794 13.9245 36.5178 14.3411C36.4563 14.7578 36.7423 15.1225 36.9181 15.3029C37.3004 15.6948 37.8838 15.9755 38.5243 16.0804C38.5419 16.0823 38.5594 16.0829 38.577 16.0855C41.2794 16.485 43.2096 18.6255 42.8796 20.8571C42.7121 21.9904 41.98 22.9913 40.8708 23.6033C40.105 24.0258 39.2046 24.2454 38.27 24.2454C37.9723 24.2453 37.6749 24.2233 37.3804 24.1796C36.7195 24.0818 36.0576 24.1815 35.5653 24.4533C35.3445 24.575 34.9653 24.8414 34.9036 25.258C34.8049 25.9266 35.6259 26.8094 36.9624 27.0069C37.6895 27.1144 38.1919 27.791 38.0844 28.5183C37.9866 29.1795 37.4184 29.6548 36.7694 29.6548C36.7045 29.6548 36.639 29.65 36.573 29.6403C33.8706 29.2408 31.9405 27.1001 32.2704 24.8686C32.4379 23.7354 33.17 22.7345 34.2793 22.1225C35.2861 21.567 36.5258 21.3623 37.7698 21.5461C38.4308 21.6438 39.0923 21.5441 39.5848 21.2725C39.8055 21.1508 40.1848 20.8844 40.2464 20.4678C40.3435 19.81 39.5493 18.9464 38.251 18.7305C38.2298 18.7284 38.2084 18.7266 38.187 18.7235C36.9431 18.5395 35.8156 17.985 35.0126 17.1619C34.128 16.2551 33.7168 15.0851 33.8844 13.9518C34.0519 12.8186 34.784 11.8178 35.8931 11.2058C36.9 10.6503 38.1396 10.4455 39.3836 10.6294C40.0444 10.7269 40.7063 10.6274 41.1986 10.3558C41.4194 10.234 41.7986 9.96764 41.8603 9.55102C41.9218 9.13439 41.6358 8.76964 41.4599 8.58927C41.0671 8.18677 40.4628 7.89977 39.8015 7.80214C39.0744 7.69464 38.572 7.01802 38.6795 6.29077C38.7869 5.56352 39.4638 5.06177 40.1909 5.16864C41.4348 5.35264 42.5623 5.90714 43.3653 6.73027C44.25 7.63714 44.6613 8.80714 44.4936 9.94039Z" fill="#BEA4FF"/>
<path d="M10.2164 19.9612C10.2164 21.1833 9.22562 22.174 8.00349 22.174C6.78137 22.174 5.79062 21.1833 5.79062 19.9612C5.79062 18.739 6.78137 17.7483 8.00349 17.7483C9.22562 17.7483 10.2164 18.7389 10.2164 19.9612ZM49.772 17.4045C48.36 17.4045 47.2155 18.5492 47.2155 19.961C47.2155 21.3729 48.3601 22.5175 49.772 22.5175C51.1839 22.5175 52.3285 21.3729 52.3285 19.961C52.3285 18.5492 51.184 17.4045 49.772 17.4045ZM26.9411 49.4874C25.5291 49.4874 24.3846 50.632 24.3846 52.0439C24.3846 53.4558 25.5292 54.6004 26.9411 54.6004C28.3531 54.6004 29.4976 53.4558 29.4976 52.0439C29.4976 50.632 28.3531 49.4874 26.9411 49.4874ZM60.854 37.7817C61.2406 37.033 60.9471 36.1127 60.1985 35.726C59.9 35.572 59.5437 35.3675 59.1312 35.1309C55.5071 33.0518 47.9664 28.7257 39.0872 35.8945C38.4316 36.4238 38.3294 37.3844 38.8586 38.0399C39.3877 38.6955 40.3482 38.798 41.004 38.2685C48.2584 32.4115 54.1142 35.7704 57.6129 37.7775C58.0382 38.0215 58.44 38.252 58.7982 38.437C58.9763 38.529 59.1706 38.585 59.3703 38.6018C59.5699 38.6187 59.771 38.596 59.9619 38.5351C60.1528 38.4743 60.3298 38.3764 60.4829 38.2471C60.6359 38.1179 60.7621 37.9597 60.854 37.7817Z" fill="#FF6E83"/>
<path d="M54.3542 7.84703C54.3542 8.59853 53.745 9.20765 52.9936 9.20765C52.2421 9.20765 51.633 8.59853 51.633 7.84703C51.633 7.09553 52.2421 6.4864 52.9936 6.4864C53.7451 6.48628 54.3542 7.09553 54.3542 7.84703ZM5.7905 1.48678C5.039 1.48678 4.42987 2.0959 4.42987 2.8474C4.42987 3.5989 5.039 4.20803 5.7905 4.20803C6.542 4.20803 7.15125 3.5989 7.15125 2.8474C7.15125 2.0959 6.542 1.48678 5.7905 1.48678ZM27.1256 19.2439C27.2795 18.9422 27.4692 18.5985 27.6701 18.2348C28.6894 16.3884 30.0851 13.8599 30.1691 10.9149C30.27 7.3769 28.4274 4.16465 24.6926 1.3674C24.0442 0.881779 23.1252 1.0139 22.64 1.66203C22.1545 2.31028 22.2864 3.22928 22.9346 3.71465C25.9034 5.93815 27.3109 8.26603 27.2377 10.8313C27.174 13.0653 26.0256 15.1458 25.1027 16.8174C24.8901 17.2028 24.6891 17.5667 24.5136 17.9108C24.1455 18.6322 24.4319 19.5153 25.1531 19.8834C25.359 19.9889 25.5871 20.044 25.8185 20.044C26.089 20.0442 26.3542 19.9695 26.5849 19.8283C26.8156 19.6871 27.0027 19.4849 27.1256 19.2439Z" fill="#59CAFC"/>
</svg>
