<svg width="153" height="129" viewBox="0 0 153 129" fill="none" xmlns="http://www.w3.org/2000/svg">
<path d="M150.022 16.5689C144.168 5.81653 130.144 -0.992739 118.673 5.14491C113.509 7.90715 109.405 12.7934 108.102 18.5686C106.589 25.2774 109.776 31.6744 113.065 37.3106C114.85 40.3699 116.806 43.3669 118.284 46.5937C119.813 49.9354 120.907 53.7975 119.755 57.4327C118.718 60.7077 116.118 63.0897 113.271 64.8404C110.129 66.6994 106.787 68.1957 103.308 69.3005C96.1481 71.6873 88.5957 72.6667 81.0653 72.1849C77.3227 71.93 73.6117 71.3288 69.9796 70.3887C66.1159 69.4014 62.3245 68.15 58.4544 67.1844C51.993 65.5757 44.6257 64.7759 38.4987 68.0071C32.5462 71.1474 29.8823 77.715 29.0584 84.1042C27.5368 95.9024 32.204 108.146 40.6307 116.408C44.6736 120.372 49.7611 123.646 55.3023 124.986C60.1371 126.155 66.3453 126.08 70.193 122.458C74.4864 118.415 73.4764 111.932 70.0664 107.666C65.7137 102.223 58.3399 100.916 51.7597 100.783C44.2744 100.633 36.796 101.75 29.3151 101.055C25.6635 100.77 22.0806 99.9043 18.701 98.4892C15.73 97.1794 13.02 95.3413 10.7021 93.0639C6.08373 88.5665 2.96881 82.5752 1.42 76.3458C-0.445059 68.8545 -0.0385252 60.9813 1.40919 53.4567C2.18083 49.5767 3.1744 45.7443 4.38499 41.9786C4.88485 40.3894 7.38845 41.0693 6.8847 42.6693C2.42619 56.8395 -0.0596981 73.2246 8.55447 86.3811C12.1193 91.9604 17.6727 95.9671 24.0828 97.5846C31.5383 99.4419 39.3614 98.5239 46.9409 98.2476C54.1479 97.9847 62.0618 98.2684 68.2398 102.476C73.3079 105.926 76.8526 112.49 75.3207 118.687C73.8436 124.662 68.1141 127.694 62.3837 128.16C56.3712 128.651 50.4545 126.629 45.405 123.466C34.9012 116.887 27.917 105.317 26.4555 93.0496C25.6938 86.6578 26.4689 79.7727 29.3609 73.9711C30.8848 70.8305 33.2566 68.181 36.2072 66.3235C39.1493 64.5157 42.5476 63.6258 45.9606 63.311C53.7146 62.5952 61.1645 65.2635 68.5202 67.3047C72.2777 68.3974 76.1293 69.1343 80.0242 69.5058C83.8044 69.8197 87.6063 69.7576 91.3744 69.3205C95.1132 68.8783 98.798 68.0586 102.372 66.8739C105.875 65.7885 109.229 64.2688 112.356 62.3501C115.114 60.5821 117.5 58.0498 117.636 54.599C117.783 50.8573 115.9 47.3572 114.11 44.2026C110.573 37.971 106.204 31.8758 105.282 24.5807C104.474 18.1992 107.036 11.9096 111.46 7.35809C113.677 5.04788 116.346 3.22139 119.3 1.99307C122.254 0.764742 125.429 0.161027 128.627 0.219725C135.191 0.408089 141.476 3.26906 146.303 7.66293C148.698 9.84346 150.713 12.4089 152.265 15.2538C153.065 16.7222 150.828 18.0347 150.027 16.565L150.022 16.5689Z" fill="#3F3D56"/>
</svg>
