<svg width="20" height="18" viewBox="0 0 20 18" fill="none" xmlns="http://www.w3.org/2000/svg">
<path fill-rule="evenodd" clip-rule="evenodd" d="M10.2141 0.44083L12.5301 5.09983C12.6461 5.33483 12.8701 5.49883 13.1301 5.53683L18.3151 6.28583C18.5251 6.31383 18.7141 6.42383 18.8431 6.59183C19.0851 6.90683 19.0481 7.35283 18.7581 7.62383L15.0001 11.2578C14.8091 11.4378 14.7241 11.7018 14.7741 11.9588L15.6741 17.0868C15.7371 17.5118 15.4471 17.9098 15.0221 17.9788C14.8461 18.0058 14.6661 17.9778 14.5061 17.8988L9.88813 15.4778C9.65613 15.3518 9.37813 15.3518 9.14613 15.4778L4.49413 17.9118C4.10513 18.1098 3.62913 17.9628 3.41713 17.5818C3.33613 17.4278 3.30813 17.2528 3.33613 17.0818L4.23613 11.9538C4.28113 11.6978 4.19613 11.4348 4.01013 11.2538L0.232129 7.62083C-0.0758712 7.31483 -0.0778712 6.81683 0.229129 6.50883C0.230129 6.50783 0.231129 6.50583 0.232129 6.50483C0.359129 6.38983 0.515129 6.31283 0.684129 6.28283L5.87013 5.53383C6.12913 5.49283 6.35213 5.33083 6.47013 5.09583L8.78413 0.44083C8.87713 0.25183 9.04213 0.10683 9.24213 0.0408302C9.44313 -0.0261698 9.66313 -0.0101698 9.85213 0.0848302C10.0071 0.16183 10.1341 0.28683 10.2141 0.44083Z" fill="#FF8A00"/>
</svg>
