<svg width="28" height="18" viewBox="0 0 28 18" fill="none" xmlns="http://www.w3.org/2000/svg">
<path d="M8.9 17.9398C11.0114 17.9504 13.1045 17.6256 15.0577 16.9841C17.011 16.3426 18.7856 15.3972 20.2787 14.2028C21.7717 13.0083 22.9534 11.5886 23.7553 10.026C24.5572 8.4634 24.9633 6.78896 24.95 5.09982V4.50982C26.0445 3.86831 26.9918 3.07999 27.75 2.17982C26.7194 2.54042 25.6289 2.77957 24.5125 2.88982C25.6961 2.3256 26.5843 1.43749 27.0125 0.389822C25.9094 0.919262 24.6998 1.29146 23.4375 1.48982C22.5874 0.765188 21.4625 0.284877 20.2368 0.123208C19.0112 -0.0384621 17.7531 0.127521 16.6572 0.595476C15.5613 1.06343 14.6887 1.80727 14.1745 2.7119C13.6603 3.61653 13.533 4.63152 13.8125 5.59982C11.57 5.51177 9.37589 5.04684 7.37295 4.23533C5.37 3.42381 3.60317 2.2839 2.1875 0.889822C1.47365 1.881 1.25728 3.05215 1.5822 4.16614C1.90712 5.28014 2.74904 6.25374 3.9375 6.88982C3.06077 6.86277 2.20432 6.67093 1.4375 6.32982V6.37982C1.42971 7.41566 1.8659 8.42234 2.67338 9.23209C3.48086 10.0418 4.61084 10.6057 5.875 10.8298C5.05955 11.0053 4.20537 11.0326 3.375 10.9098C3.74098 11.7932 4.4396 12.5644 5.37506 13.1176C6.31051 13.6708 7.43699 13.979 8.6 13.9998C6.61151 15.2803 4.14011 15.9852 1.5875 15.9998C1.13994 15.9895 0.693434 15.9594 0.25 15.9098C2.83369 17.2267 5.83651 17.921 8.9 17.9098" fill="#2F0468"/>
</svg>
