<svg width="139" height="93" viewBox="0 0 139 93" fill="none" xmlns="http://www.w3.org/2000/svg">
<g clip-path="url(#clip0_19_2505)">
<path d="M69.4228 80.2294C91.0456 80.2294 108.574 79.181 108.574 77.8876C108.574 76.5941 91.0456 75.5457 69.4228 75.5457C47.7999 75.5457 30.2711 76.5941 30.2711 77.8876C30.2711 79.181 47.7999 80.2294 69.4228 80.2294Z" fill="url(#paint0_linear_19_2505)"/>
<path fill-rule="evenodd" clip-rule="evenodd" d="M59.9302 28.985C55.8944 28.985 52.593 32.2821 52.593 36.3126C52.593 40.3431 55.8944 43.6402 59.9302 43.6402C60.7398 43.6402 61.4028 44.3024 61.4028 45.111C61.4028 45.9195 60.7398 46.5818 59.9302 46.5818H56.0908C54.1221 46.5818 52.5111 48.1907 52.5111 50.1569C52.5111 52.1231 54.1221 53.732 56.0908 53.732C57.7936 53.732 59.1868 55.1234 59.1868 56.8239C59.1868 59.9265 61.7285 62.465 64.8352 62.465H97.9927C102.028 62.465 105.33 59.1678 105.33 55.1374C105.33 51.1069 102.028 47.8097 97.9927 47.8097H97.2828C96.4733 47.8097 95.8102 47.1483 95.8102 46.3389C95.8102 45.5305 96.4725 44.8681 97.2828 44.8681H102.06C104.029 44.8681 105.64 43.2592 105.64 41.2931C105.64 39.3294 104.033 37.722 102.068 37.718H98.2234C96.5208 37.718 95.1276 36.3266 95.1276 34.6261C95.1276 31.5234 92.5857 28.985 89.4791 28.985H59.9302Z" fill="url(#paint1_linear_19_2505)"/>
<path fill-rule="evenodd" clip-rule="evenodd" d="M44.9406 15.655C41.7496 15.655 39.1392 18.2652 39.1392 21.4561C39.1392 24.6469 41.7496 27.2571 44.9406 27.2571C45.5807 27.2571 46.1051 27.7813 46.1051 28.4215C46.1051 29.0616 45.5807 29.5858 44.9406 29.5858H41.905C40.3483 29.5858 39.0745 30.8596 39.0745 32.4161C39.0745 33.9726 40.3483 35.2464 41.905 35.2464C43.2513 35.2464 44.3529 36.348 44.3529 37.6942C44.3529 40.1505 46.3627 42.16 48.8191 42.16H75.0365C78.2277 42.16 80.8381 39.5498 80.8381 36.359C80.8381 33.1682 78.2277 30.558 75.0365 30.558H74.4754C73.8353 30.558 73.3109 30.0344 73.3109 29.3936C73.3109 28.7535 73.8347 28.2292 74.4754 28.2292H78.2528C79.8095 28.2292 81.0834 26.9555 81.0834 25.3989C81.0834 23.8443 79.8127 22.5719 78.2587 22.5687H75.2191C73.8728 22.5687 72.7711 21.4671 72.7711 20.1209C72.7711 17.6646 70.7614 15.655 68.3051 15.655H44.9406Z" fill="url(#paint2_linear_19_2505)"/>
<path d="M85.0742 13.0904C84.9955 13.062 84.9159 13.0363 84.8356 13.0133C84.809 13.0056 84.7826 12.9975 84.756 12.9907C84.6989 12.9762 84.6416 12.9624 84.5841 12.9493C84.5566 12.9431 84.5292 12.938 84.5012 12.9327C84.4436 12.922 84.3857 12.9123 84.3278 12.9036C84.2938 12.8988 84.2598 12.8945 84.2258 12.8906C84.2011 12.8876 84.1764 12.8848 84.1514 12.8824C84.1124 12.8788 84.0733 12.8758 84.0342 12.8735C84.0135 12.8723 83.9929 12.8703 83.9722 12.8695C83.912 12.8666 83.8513 12.865 83.7903 12.865H55.8196C55.6274 12.8644 55.4354 12.8791 55.2454 12.9087C55.1833 12.9183 55.1214 12.9295 55.0598 12.942C53.4636 13.27 52.235 14.6129 52.0676 16.2711C52.0545 16.4 52.048 16.5295 52.0481 16.6591V74.1709C52.0481 75.8131 53.085 77.2112 54.5363 77.7396C54.5428 77.7421 54.5493 77.7441 54.5558 77.7461C54.6278 77.7717 54.701 77.7951 54.7747 77.8162C54.8014 77.824 54.8276 77.8322 54.8547 77.839C54.8831 77.8463 54.9113 77.8532 54.9396 77.8601C54.9683 77.8669 54.9975 77.8739 55.0266 77.8804C55.054 77.8864 55.0815 77.8917 55.1095 77.897C55.167 77.9077 55.2247 77.9175 55.2826 77.9261C55.3161 77.9311 55.3501 77.9351 55.3844 77.9391C55.4091 77.9419 55.4338 77.9449 55.4588 77.9472C55.4978 77.9509 55.537 77.9537 55.5762 77.9562C55.5968 77.9574 55.6175 77.9594 55.638 77.9602C55.6982 77.963 55.7589 77.9647 55.8201 77.9647H83.7911C83.9213 77.9647 84.0499 77.9582 84.1769 77.9452C85.9517 77.764 87.3632 76.344 87.5436 74.5583C87.5566 74.4305 87.5629 74.3011 87.5629 74.1701V16.6591C87.5621 15.0169 86.5252 13.6186 85.0742 13.0904Z" fill="#200E32" stroke="#200E32" stroke-width="4"/>
<path d="M69.8052 74.874C71.006 74.874 71.9795 73.897 71.9795 72.6919C71.9795 71.4868 71.006 70.5096 69.8052 70.5096C68.6042 70.5096 67.6308 71.4868 67.6308 72.6919C67.6308 73.897 68.6042 74.874 69.8052 74.874Z" fill="white" stroke="#E1E4E5" stroke-width="4"/>
<path d="M73.2479 15.956H66.5436C66.4436 15.956 66.3625 16.0374 66.3625 16.1378C66.3625 16.2382 66.4436 16.3196 66.5436 16.3196H73.2479C73.348 16.3196 73.4291 16.2382 73.4291 16.1378C73.4291 16.0374 73.348 15.956 73.2479 15.956Z" fill="white" stroke="#E1E4E5" stroke-width="2.346"/>
<path d="M81.9365 18.6837H57.8549C56.1489 18.6837 54.766 20.0716 54.766 21.7837V63.7729C54.766 65.485 56.1489 66.8729 57.8549 66.8729H81.9365C83.6424 66.8729 85.0254 65.485 85.0254 63.7729V21.7837C85.0254 20.0716 83.6424 18.6837 81.9365 18.6837Z" fill="#200E32" stroke="#200E32" stroke-width="4"/>
<path d="M92.5655 37.975H60.6852C59.2415 37.975 58.0711 39.1496 58.0711 40.5985V56.8964C58.0711 58.3454 59.2415 59.52 60.6852 59.52H92.5655C94.0092 59.52 95.1796 58.3454 95.1796 56.8964V40.5985C95.1796 39.1496 94.0092 37.975 92.5655 37.975Z" fill="#2F0468"/>
<path d="M89.7904 43.9769H81.9606M89.7904 48.0384H81.9606M78.2655 43.9769H62.4297M78.2655 48.0384H62.4297M78.2655 51.6584H62.4297" stroke="white" stroke-width="11.609" stroke-miterlimit="10" stroke-linecap="round" stroke-linejoin="round"/>
<path fill-rule="evenodd" clip-rule="evenodd" d="M85.6727 55.8776C85.4297 55.6413 85.2365 55.3583 85.1048 55.0454C84.973 54.7326 84.9054 54.3963 84.9058 54.0567C84.9058 53.3178 85.2203 52.6526 85.7224 52.1885C85.3243 51.8832 84.837 51.7182 84.3359 51.719C83.0726 51.719 82.0486 52.7468 82.0486 54.0145C82.0486 55.2824 83.0726 56.3103 84.3359 56.3103C84.8349 56.3103 85.2966 56.1498 85.6727 55.8776Z" fill="white"/>
<path d="M87.6659 56.2882C88.9362 56.2882 89.9661 55.2547 89.9661 53.9798C89.9661 52.7049 88.9362 51.6714 87.6659 51.6714C86.3956 51.6714 85.3658 52.7049 85.3658 53.9798C85.3658 55.2547 86.3956 56.2882 87.6659 56.2882Z" fill="white"/>
<path d="M39.3455 46.6549L37.5 48.5053L36.6033 47.6082M42.4722 46.1899H46.0244M42.4722 48.9024H48.4956M39.3455 52.992L37.5 54.8424L36.6033 53.9452M42.4722 52.5449H46.0244M42.4722 55.1799H48.4956M39.3455 59.0167L37.5 60.8672L36.6033 59.9701M42.4722 58.5899H46.0244M42.4722 61.2249H48.4956M39.3455 65.3537L37.5 67.2041L36.6033 66.3069M42.4722 64.8674H46.0244M42.4722 67.5799H48.4956" stroke="#E1E4E5" stroke-width="5.5" stroke-linecap="round" stroke-linejoin="round"/>
<path d="M67.2457 22.8661H41.5456C39.8396 22.8661 38.4567 24.254 38.4567 25.9661V32.0351C38.4567 33.7472 39.8396 35.1351 41.5456 35.1351H67.2457C68.9517 35.1351 70.3346 33.7472 70.3346 32.0351V25.9661C70.3346 24.254 68.9517 22.8661 67.2457 22.8661Z" fill="white" stroke="#E1E4E5" stroke-width="4"/>
<path d="M66.3606 26.6848H49.872C49.4717 26.6848 49.1472 27.0105 49.1472 27.4122C49.1472 27.814 49.4717 28.1396 49.872 28.1396H66.3606C66.7609 28.1396 67.0854 27.814 67.0854 27.4122C67.0854 27.0105 66.7609 26.6848 66.3606 26.6848Z" fill="#E1E4E5"/>
<path d="M60.0188 29.7761H49.872C49.4717 29.7761 49.1472 30.1018 49.1472 30.5035C49.1472 30.9053 49.4717 31.231 49.872 31.231H60.0188C60.4191 31.231 60.7436 30.9053 60.7436 30.5035C60.7436 30.1018 60.4191 29.7761 60.0188 29.7761Z" fill="#E1E4E5"/>
<path fill-rule="evenodd" clip-rule="evenodd" d="M43.5088 32.0934C41.8191 32.0934 40.449 30.699 40.449 28.9794C40.449 27.2597 41.8191 25.8655 43.5088 25.8655C45.1985 25.8655 46.5685 27.2597 46.5685 28.9794C46.5685 30.699 45.1985 32.0934 43.5088 32.0934Z" fill="#2F0468"/>
<path d="M44.5861 28.4604L43.2936 29.8444L42.5176 29.0141" stroke="white" stroke-width="3.568" stroke-linecap="round" stroke-linejoin="round"/>
<path fill-rule="evenodd" clip-rule="evenodd" d="M103.909 29.8852H103.477C103.373 29.8852 103.289 29.8 103.289 29.6961V29.2629C103.289 29.1581 103.374 29.0738 103.477 29.0738H103.909C104.012 29.0738 104.097 29.1591 104.097 29.2629V29.6961C104.098 29.8 104.013 29.8852 103.909 29.8852ZM102.412 29.8852H101.98C101.877 29.8852 101.792 29.8 101.792 29.6961V29.2629C101.792 29.1581 101.877 29.0738 101.98 29.0738H102.412C102.515 29.0738 102.6 29.1591 102.6 29.2629V29.6961C102.6 29.8 102.515 29.8852 102.412 29.8852ZM100.914 29.8852H100.483C100.379 29.8852 100.294 29.8 100.294 29.6961V29.2629C100.294 29.1581 100.379 29.0738 100.483 29.0738H100.914C101.018 29.0738 101.103 29.1591 101.103 29.2629V29.6961C101.104 29.8 101.019 29.8852 100.914 29.8852ZM99.4177 29.8852H98.9861C98.8826 29.8852 98.7976 29.8 98.7976 29.6961V29.2629C98.7976 29.1581 98.8826 29.0738 98.9861 29.0738H99.4177C99.5221 29.0738 99.6069 29.1591 99.6069 29.2629V29.6961C99.6064 29.7463 99.5863 29.7942 99.5509 29.8296C99.5155 29.865 99.4677 29.885 99.4177 29.8852ZM97.921 29.8852H97.4893C97.3849 29.8852 97.3 29.8 97.3 29.6961V29.2629C97.3 29.1581 97.3849 29.0738 97.4893 29.0738H97.921C98.0245 29.0738 98.1094 29.1591 98.1094 29.2629V29.6961C98.1094 29.8 98.0245 29.8852 97.921 29.8852ZM102.357 28.2474H101.925C101.822 28.2474 101.737 28.1621 101.737 28.0583V27.6241C101.737 27.5202 101.822 27.435 101.925 27.435H102.357C102.462 27.435 102.546 27.5202 102.546 27.6241V28.0573C102.546 28.0822 102.541 28.107 102.532 28.13C102.522 28.1531 102.508 28.1741 102.491 28.1917C102.473 28.2094 102.452 28.2234 102.429 28.233C102.407 28.2425 102.382 28.2474 102.357 28.2474ZM100.86 28.2474H100.429C100.325 28.2474 100.24 28.1621 100.24 28.0583V27.6241C100.24 27.5202 100.325 27.435 100.429 27.435H100.86C100.964 27.435 101.049 27.5202 101.049 27.6241V28.0573C101.049 28.0822 101.044 28.107 101.035 28.13C101.025 28.1531 101.012 28.1741 100.994 28.1917C100.977 28.2094 100.956 28.2234 100.933 28.233C100.91 28.2425 100.885 28.2474 100.86 28.2474ZM99.3637 28.2474H98.932C98.8276 28.2474 98.7428 28.1621 98.7428 28.0583V27.6241C98.7428 27.5202 98.8276 27.435 98.932 27.435H99.3637C99.4672 27.435 99.5521 27.5202 99.5521 27.6241V28.0573C99.5521 28.1621 99.4672 28.2474 99.3637 28.2474ZM100.914 31.6448H100.483C100.379 31.6448 100.294 31.5595 100.294 31.4557V31.0225C100.294 30.9177 100.379 30.8334 100.483 30.8334H100.914C101.018 30.8334 101.103 30.9186 101.103 31.0225V31.4557C101.104 31.5595 101.019 31.6448 100.914 31.6448ZM99.4177 31.6448H98.9861C98.8826 31.6448 98.7976 31.5595 98.7976 31.4557V31.0225C98.7976 30.9177 98.8826 30.8334 98.9861 30.8334H99.4177C99.5221 30.8334 99.6069 30.9186 99.6069 31.0225V31.4557C99.6064 31.5058 99.5863 31.5538 99.5509 31.5891C99.5155 31.6245 99.4677 31.6445 99.4177 31.6448Z" fill="#E1E4E5"/>
<path d="M91.8947 67.5593L95.4781 63.963C95.6086 63.8321 95.6086 63.6198 95.4781 63.4889L95.478 63.4888C95.3475 63.3578 95.136 63.3578 95.0056 63.4888L91.4222 67.085C91.2917 67.216 91.2917 67.4282 91.4222 67.5592L91.4223 67.5593C91.5528 67.6902 91.7643 67.6902 91.8947 67.5593Z" fill="#E1E4E5"/>
<path d="M92.2455 64.9843L93.279 63.9471C93.4094 63.8162 93.4094 63.6039 93.279 63.473L93.2789 63.4729C93.1484 63.342 92.9369 63.342 92.8064 63.4729L91.773 64.5101C91.6425 64.641 91.6425 64.8533 91.773 64.9842L91.7731 64.9843C91.9036 65.1152 92.1151 65.1152 92.2455 64.9843Z" fill="#E1E4E5"/>
<path d="M77.9026 28.7711L79.7808 26.8861C79.8492 26.8175 79.8492 26.7062 79.7808 26.6376C79.7124 26.5689 79.6015 26.5689 79.5331 26.6376L77.6549 28.5225C77.5865 28.5911 77.5865 28.7024 77.6549 28.7711C77.7233 28.8397 77.8342 28.8397 77.9026 28.7711Z" fill="#E1E4E5"/>
<path d="M78.0865 27.4215L78.6281 26.8779C78.6965 26.8092 78.6965 26.698 78.6281 26.6293C78.5597 26.5607 78.4489 26.5607 78.3805 26.6293L77.8388 27.1729C77.7704 27.2416 77.7704 27.3529 77.8388 27.4215C77.9072 27.4902 78.0181 27.4902 78.0865 27.4215Z" fill="#E1E4E5"/>
<path d="M80.1567 62.775C80.1567 63.2886 80.5716 63.705 81.0833 63.705C81.5951 63.705 82.01 63.2886 82.01 62.775C82.01 62.2613 81.5951 61.845 81.0833 61.845C80.5716 61.845 80.1567 62.2613 80.1567 62.775Z" fill="#E1E4E5"/>
<path d="M79.8478 29.605C79.8478 30.1186 80.2627 30.535 80.7744 30.535C81.2862 30.535 81.7011 30.1186 81.7011 29.605C81.7011 29.0914 81.2862 28.675 80.7744 28.675C80.2627 28.675 79.8478 29.0914 79.8478 29.605Z" fill="#E1E4E5"/>
<path d="M92.9419 17.6578C93.5407 17.4968 93.8961 16.8791 93.7356 16.2781C93.5752 15.6771 92.9597 15.3205 92.3609 15.4815C91.762 15.6425 91.4067 16.2603 91.5671 16.8612C91.7276 17.4622 92.3431 17.8188 92.9419 17.6578Z" fill="#E1E4E5"/>
<path fill-rule="evenodd" clip-rule="evenodd" d="M91.2767 25.1968V21.4689C91.2766 21.3772 91.2945 21.2864 91.3293 21.2017C91.3642 21.1169 91.4154 21.0399 91.4799 20.975C91.5445 20.9101 91.6211 20.8586 91.7055 20.8234C91.7899 20.7882 91.8803 20.7701 91.9717 20.77H96.1417C96.5256 20.77 96.8367 21.0828 96.8367 21.4689V25.1968C96.8367 25.3214 96.8036 25.4437 96.7407 25.5511C96.6779 25.6585 96.5876 25.7471 96.4791 25.8077L94.3941 26.9725C94.2909 27.0303 94.1747 27.0606 94.0565 27.0606C93.9383 27.0606 93.8221 27.0303 93.7189 26.9725L91.6339 25.8077C91.5256 25.747 91.4354 25.6583 91.3726 25.551C91.3098 25.4436 91.2767 25.3213 91.2767 25.1968Z" fill="#E1E4E5"/>
<path d="M92.901 23.8525H95.2124M92.901 22.7658H95.2124M92.901 24.9081H95.2124" stroke="white" stroke-width="2.529" stroke-linecap="round" stroke-linejoin="round"/>
</g>
<defs>
<linearGradient id="paint0_linear_19_2505" x1="71.0923" y1="82.8555" x2="71.0838" y2="70.4486" gradientUnits="userSpaceOnUse">
<stop stop-color="white"/>
<stop offset="1" stop-color="#EEEEEE"/>
</linearGradient>
<linearGradient id="paint1_linear_19_2505" x1="80.2084" y1="81.2358" x2="79.5577" y2="-7.44277" gradientUnits="userSpaceOnUse">
<stop stop-color="white"/>
<stop offset="1" stop-color="#EEEEEE"/>
</linearGradient>
<linearGradient id="paint2_linear_19_2505" x1="60.9747" y1="57.0202" x2="60.4589" y2="-13.1836" gradientUnits="userSpaceOnUse">
<stop stop-color="white"/>
<stop offset="1" stop-color="#EEEEEE"/>
</linearGradient>
<clipPath id="clip0_19_2505">
<rect width="139" height="93" fill="white"/>
</clipPath>
</defs>
</svg>
