<svg width="63" height="101" viewBox="0 0 63 101" fill="none" xmlns="http://www.w3.org/2000/svg">
<path d="M62.1955 40.1566C61.9082 39.5687 61.6035 38.9956 61.2593 38.4576L53.7902 26.786C38.896 37.0997 9.27725 39.2354 2.70275 39.5804C2.72825 39.5327 0.6015 45.7295 0.62225 45.6185C8.959 46.26 49.6565 48.7978 62.1955 40.1566ZM8.66675 30.4294C16.6075 30.0501 34.3402 27.8084 47.2267 15.9024L39.996 4.90122C35.7717 -1.92022 28.7827 -1.47994 24.5585 5.3419L8.667 30.429M24.5553 95.2165C28.732 101.743 35.5857 102.65 40.2885 95.3853L47.7535 83.72C35.315 72.325 17.4128 71.0928 9.26125 71.312L24.5553 95.2165ZM0 53.5034L2.768 61.8313C11.083 62.2579 36.4855 64.2417 54.183 73.1524L61.2593 62.0942C61.806 61.236 62.2917 60.2878 62.7077 59.2661C50.6902 50.1018 8.7965 52.8826 0.85175 53.503" fill="white"/>
</svg>
