<svg width="128" height="85" viewBox="0 0 128 85" fill="none" xmlns="http://www.w3.org/2000/svg">
<g clip-path="url(#clip0_19_2534)">
<path d="M98.4232 48.8849C98.8618 56.937 83.0576 73.31 63.5779 67.2498C54.518 64.431 55.2855 59.7525 48.3964 53.5866C44.2901 49.9116 38.3902 47.1327 36.7492 41.7908C35.3317 37.18 36.201 32.2241 38.6586 29.0006C44.1857 21.751 55.3441 16.7868 66.3386 28.2091C77.3329 39.6313 97.2894 28.118 98.4232 48.8849Z" fill="#200E32"/>
<path d="M92.3292 29.0035C90.8851 31.5708 87.7224 31.9236 82.6553 31.4357C78.8446 31.0682 75.3694 30.7837 71.5584 28.714C68.8909 27.2663 66.7793 25.3077 65.2382 23.4054C63.5682 21.3446 61.2372 18.9927 62.3799 16.6561C63.9504 13.4464 73.0315 10.743 81.8499 15.1638C91.5366 20.0216 93.7421 26.4945 92.3292 29.0035Z" fill="#200E32"/>
<path d="M53.1836 67.4843C49.0928 61.7838 44.9034 55.725 39.4185 52.7408C33.761 49.6612 32.7177 51.5593 32.3261 54.5768C31.9344 57.5942 33.6799 64.7436 41.4007 68.8115C49.1236 72.8804 57.0112 72.8195 53.1836 67.4843Z" fill="#200E32"/>
<path d="M97.9174 34.5983C96.0796 35.0319 94.1359 33.4795 94.1359 33.4795C94.1359 33.4795 95.1731 31.2248 97.0116 30.7924C98.8493 30.3588 100.792 31.9099 100.792 31.9099C100.792 31.9099 99.7552 34.1646 97.9174 34.5983Z" fill="url(#paint0_linear_19_2534)"/>
<path d="M51.5392 16.1697C53.4739 17.4971 56.4298 16.5692 56.4298 16.5692C56.4298 16.5692 56.2468 13.4894 54.3107 12.1634C52.3759 10.8359 49.4214 11.7624 49.4214 11.7624C49.4214 11.7624 49.6044 14.8423 51.5392 16.1697Z" fill="url(#paint1_linear_19_2534)"/>
<path d="M26.9193 40.9494C29.0167 43.076 32.939 42.6276 32.939 42.6276C32.939 42.6276 33.4581 38.7315 31.3586 36.6063C29.2611 34.4798 25.3407 34.9269 25.3407 34.9269C25.3407 34.9269 24.8218 38.823 26.9193 40.9494Z" fill="url(#paint2_linear_19_2534)"/>
<path d="M94.2155 51.2806C93.3547 51.2806 92.6568 51.9456 92.6568 52.7659C92.6568 53.5861 93.3547 54.2511 94.2155 54.2511C95.0764 54.2511 95.7743 53.5861 95.7743 52.7659C95.7743 51.9456 95.0764 51.2806 94.2155 51.2806Z" fill="#2F0468"/>
<path d="M41.0813 58.1665C39.9209 58.1665 38.9803 59.0733 38.9803 60.1918C38.9803 61.3103 39.9209 62.217 41.0813 62.217C42.2417 62.217 43.1824 61.3103 43.1824 60.1918C43.1824 59.0733 42.2417 58.1665 41.0813 58.1665Z" fill="#2F0468"/>
<path d="M38.2349 36.1587C37.8231 36.1587 37.4893 35.8262 37.4893 35.4161C37.4893 35.0059 37.8231 34.6735 38.2349 34.6735C38.6466 34.6735 38.9804 35.0059 38.9804 35.4161C38.9804 35.8262 38.6466 36.1587 38.2349 36.1587Z" fill="#2F0468"/>
<path d="M96.2883 25.0219C95.5023 25.0219 94.8651 24.3872 94.8651 23.6042C94.8651 22.8213 95.5023 22.1866 96.2883 22.1866C97.0743 22.1866 97.7115 22.8213 97.7115 23.6042C97.7115 24.3872 97.0743 25.0219 96.2883 25.0219Z" fill="#2F0468"/>
<path d="M93.8667 66.1583C93.1597 66.1583 92.5867 65.5874 92.5867 64.8833C92.5867 64.1791 93.1597 63.6083 93.8667 63.6083C94.5736 63.6083 95.1467 64.1791 95.1467 64.8833C95.1467 65.5874 94.5736 66.1583 93.8667 66.1583Z" fill="#E1E4E5"/>
<path d="M32.2941 49.4323C31.5505 49.4323 30.9477 48.8319 30.9477 48.0912C30.9477 47.3505 31.5505 46.75 32.2941 46.75C33.0377 46.75 33.6405 47.3505 33.6405 48.0912C33.6405 48.8319 33.0377 49.4323 32.2941 49.4323Z" fill="#E1E4E5"/>
<path d="M47.5876 67.4827C47.3255 67.4827 47.1131 67.2711 47.1131 67.0101C47.1131 66.7491 47.3255 66.5375 47.5876 66.5375C47.8496 66.5375 48.062 66.7491 48.062 67.0101C48.062 67.2711 47.8496 67.4827 47.5876 67.4827Z" fill="#E1E4E5"/>
<path d="M83.8464 19.9566C83.4721 19.9566 83.1687 19.6544 83.1687 19.2815C83.1687 18.9087 83.4721 18.6065 83.8464 18.6065C84.2207 18.6065 84.5241 18.9087 84.5241 19.2815C84.5241 19.6544 84.2207 19.9566 83.8464 19.9566Z" fill="#E1E4E5"/>
<path d="M41.2142 42.8707C41.3089 43.2227 41.0992 43.5844 40.7458 43.6787C40.3925 43.773 40.0293 43.5642 39.9347 43.2122C39.84 42.8603 40.0497 42.4985 40.403 42.4042C40.7563 42.3099 41.1195 42.5188 41.2142 42.8707Z" fill="#E1E4E5"/>
<path d="M41.3524 29.0029C40.8658 29.0029 40.4713 28.6099 40.4713 28.1252C40.4713 27.6405 40.8658 27.2476 41.3524 27.2476C41.839 27.2476 42.2335 27.6405 42.2335 28.1252C42.2335 28.6099 41.839 29.0029 41.3524 29.0029Z" fill="#E1E4E5"/>
<path d="M95.2323 44.2598C94.858 44.2598 94.5546 44.018 94.5546 43.7197C94.5546 43.4215 94.858 43.1797 95.2323 43.1797C95.6066 43.1797 95.91 43.4215 95.91 43.7197C95.91 44.018 95.6066 44.2598 95.2323 44.2598Z" fill="#E1E4E5"/>
<path d="M68.0579 14.1505C68.2549 14.8829 67.8185 15.6357 67.0833 15.832C66.348 16.0282 65.5922 15.5936 65.3952 14.8612C65.1982 14.1288 65.6346 13.376 66.3698 13.1798C67.1051 12.9835 67.8608 13.4182 68.0579 14.1505Z" fill="#E1E4E5"/>
<path d="M103.162 40.5385H103.18C103.285 42.0203 104.391 42.0431 104.391 42.0431C104.391 42.0431 103.171 42.0668 103.171 43.779C103.171 42.0668 101.951 42.0431 101.951 42.0431C101.951 42.0431 103.057 42.0203 103.162 40.5385ZM46.7587 20.0916H46.7893C46.97 22.6847 48.8754 22.7246 48.8754 22.7246C48.8754 22.7246 46.7743 22.7661 46.7743 25.7624C46.7743 22.7661 44.6734 22.7246 44.6734 22.7246C44.6734 22.7246 46.5779 22.6847 46.7587 20.0916Z" fill="#E1E4E5"/>
<path d="M57.158 59.8718C57.158 59.8718 54.3359 58.379 54.1093 58C53.8817 57.6223 52.7974 55.7444 51.8036 55.0054C50.8112 54.2676 49.7971 54.6603 49.3141 55.2983L50.176 56.6618C50.176 56.6618 48.5572 55.4205 47.7003 55.7233C46.8435 56.026 46.7396 57.0259 46.7396 57.0259C46.7396 57.0259 47.4428 57.3976 47.782 57.7212C48.1212 58.0448 51.3464 63.4013 59.2252 64.8143C67.104 66.2273 67.8347 65.2035 67.9246 65.1331C68.0147 65.0625 68.3483 63.5481 68.3483 63.5481L57.158 59.8718Z" fill="#F8AE9D"/>
<path opacity="0.1" d="M57.158 59.8718C57.158 59.8718 54.3359 58.379 54.1093 58C53.8817 57.6223 52.7974 55.7444 51.8036 55.0054C50.8112 54.2676 49.7971 54.6603 49.3141 55.2983L50.176 56.6618C50.176 56.6618 48.5572 55.4205 47.7003 55.7233C46.8435 56.026 46.7396 57.0259 46.7396 57.0259C46.7396 57.0259 47.4428 57.3976 47.782 57.7212C48.1212 58.0448 51.3464 63.4013 59.2252 64.8143C67.104 66.2273 67.8347 65.2035 67.9246 65.1331C68.0147 65.0625 68.3483 63.5481 68.3483 63.5481L57.158 59.8718Z" fill="black"/>
<path fill-rule="evenodd" clip-rule="evenodd" d="M77.4803 59.9817C77.692 60.0625 77.8785 60.1336 78.0442 60.1864C78.8055 60.429 80.6111 61.8985 80.6111 61.8985L80.5942 61.9251C81.5745 62.6681 82.0984 63.0287 83.0901 63.6901C83.9781 64.2824 87.53 65.697 89.7323 66.5491C90.6485 66.9035 91.0032 68.0131 90.4563 68.8265L85.826 75.7144C85.3242 76.4609 84.2876 76.6148 83.5917 76.0434C81.3807 74.2283 77.0644 70.6842 76.4898 70.2098C76.188 69.9604 75.7141 69.7737 75.2474 69.6386C74.8477 69.5835 73.7371 69.496 70.8193 69.5439C68.9603 69.5744 67.8325 69.9478 66.8654 70.2681C65.7001 70.654 64.7681 70.9626 63.0719 70.5015C63.0719 70.5015 56.7265 67.5626 55.2297 66.9252C53.851 66.337 53.3892 65.886 52.2889 64.8111C52.1963 64.7205 52.099 64.6255 51.9963 64.5257C51.5007 64.0441 51.0171 63.6642 50.5427 63.2915C49.834 62.7346 49.1456 62.1938 48.4679 61.3545C47.8313 60.5676 47.392 60.3015 47.1327 60.1443C46.9304 60.0218 46.8378 59.9657 46.8467 59.7804C46.8669 59.3577 48.2604 58.5864 48.9562 58.8708C49.6518 59.1552 50.6987 60.0467 50.6987 60.0467C50.6987 60.0467 54.6021 62.8676 55.298 63.1796C55.6467 63.3365 56.7063 63.6504 57.7636 63.9635C58.8137 64.2746 59.8618 64.585 60.2085 64.7404C60.9037 65.0535 66.6682 65.1516 66.6682 65.1516C66.4831 65.0725 66.3316 64.999 66.2282 64.9351C65.8195 64.6838 64.887 64.6145 63.8417 64.5369C63.0444 64.4776 62.1816 64.4136 61.4353 64.2602C60.3264 64.033 59.5479 63.7434 58.6836 63.4219C58.2032 63.2433 57.6963 63.0547 57.0916 62.8617C55.3985 62.3209 54.7034 61.3064 55.1808 60.2595C55.6581 59.2126 56.48 58.9447 57.3514 58.9956C58.2229 59.0464 60.5685 59.2644 62.9417 59.9731C64.7942 60.5274 65.886 60.1582 67.0054 59.7797C67.3198 59.6734 67.6362 59.5665 67.9723 59.4789C69.5054 59.0797 71.9087 58.9563 73.9961 59.1357C75.6291 59.2759 76.7188 59.6914 77.4803 59.9817Z" fill="#F8AE9D"/>
<path fill-rule="evenodd" clip-rule="evenodd" d="M60.567 18.5583C60.0158 18.9652 59.5261 19.4942 59.1349 20.145C57.3282 23.1496 56.0377 26.4036 55.2634 29.7645C52.4073 29.3805 49.6354 28.7972 47.0349 28.0145C49.8167 23.0785 54.749 19.5065 60.567 18.5583ZM46.376 29.2953C49.0903 30.1285 51.9873 30.7483 54.9736 31.1548C54.1986 35.313 54.1984 39.5778 54.973 43.7361C52.0324 44.1365 49.1785 44.7439 46.5004 45.5582C45.2867 43.0603 44.6061 40.2573 44.6061 37.296C44.6061 34.4376 45.2402 31.7267 46.376 29.2953ZM47.1815 46.8332C49.9125 51.5072 54.5892 54.9141 60.1062 55.9528C59.7414 55.6132 59.4133 55.2119 59.135 54.7489C57.3278 51.7435 56.037 48.4884 55.2627 45.1265C52.4604 45.5033 49.7391 46.0723 47.1815 46.8332ZM56.6822 44.9528C57.4271 48.1212 58.6513 51.1876 60.3551 54.0209V54.0211C61.8907 56.5759 65.4478 56.5759 66.9834 54.0211L66.9835 54.0209C68.6872 51.1876 69.9115 48.1212 70.6563 44.9528C66.0574 44.4448 61.2809 44.4448 56.6822 44.9528ZM72.0758 45.1265C71.3015 48.4884 70.0109 51.7435 68.2037 54.7489C67.9253 55.2118 67.5974 55.6128 67.2328 55.9524C72.7492 54.913 77.4251 51.506 80.1556 46.8325C77.5983 46.0719 74.8774 45.5032 72.0758 45.1265ZM80.8366 45.5573C78.1588 44.7434 75.3054 44.1364 72.3655 43.7361C73.1401 39.5776 73.14 35.3127 72.3649 31.1544C75.3505 30.7478 78.2468 30.1278 80.9603 29.2946C82.0962 31.7261 82.7305 34.4373 82.7305 37.296C82.7305 40.257 82.0501 43.0596 80.8366 45.5573ZM70.9517 43.5602C66.1595 43.0201 61.1787 43.0201 56.387 43.5602C55.6235 39.5191 55.6237 35.3716 56.3876 31.3306C61.1793 31.8706 66.1596 31.8705 70.951 31.3302C71.7149 35.3713 71.7152 39.519 70.9517 43.5602ZM56.6829 29.9381C61.2816 30.4459 66.0574 30.4457 70.6556 29.9377C69.9106 26.7705 68.6866 23.7052 66.9835 20.8729C65.4455 18.3177 61.8906 18.3184 60.3551 20.8728C58.6519 23.7052 57.4279 26.7708 56.6829 29.9381ZM72.0751 29.7639C74.9305 29.3798 77.7017 28.7965 80.3014 28.0136C77.5195 23.0784 72.5879 19.507 66.7708 18.5585C67.322 18.9654 67.812 19.4942 68.2035 20.1447L68.2037 20.145C70.0102 23.1495 71.3007 26.4033 72.0751 29.7639Z" fill="#2F0468"/>
</g>
<defs>
<linearGradient id="paint0_linear_19_2534" x1="90.9969" y1="35.6765" x2="107.062" y2="28.0573" gradientUnits="userSpaceOnUse">
<stop stop-color="white"/>
<stop offset="1" stop-color="#EEEEEE"/>
</linearGradient>
<linearGradient id="paint1_linear_19_2534" x1="59.0758" y1="20.5252" x2="43.9086" y2="4.46909" gradientUnits="userSpaceOnUse">
<stop stop-color="white"/>
<stop offset="1" stop-color="#EEEEEE"/>
</linearGradient>
<linearGradient id="paint2_linear_19_2534" x1="35.2879" y1="48.2131" x2="20.2084" y2="24.482" gradientUnits="userSpaceOnUse">
<stop stop-color="white"/>
<stop offset="1" stop-color="#EEEEEE"/>
</linearGradient>
<clipPath id="clip0_19_2534">
<rect width="128" height="85" fill="white"/>
</clipPath>
</defs>
</svg>
